<svg width="44" height="44" viewBox="0 0 44 44" fill="none" xmlns="http://www.w3.org/2000/svg">
<circle cx="22" cy="22" r="22" fill="#FEDCC1" fill-opacity="0.5"/>
<path d="M26.2333 31.3333V31.4333H26.3333C27.7484 31.4333 28.9545 30.9369 29.9457 29.9457C30.9369 28.9545 31.4333 27.7484 31.4333 26.3333V26.2333H31.3333H30.0833H29.9833V26.3333C29.9833 27.3488 29.6291 28.2087 28.9189 28.9189C28.2087 29.6291 27.3488 29.9833 26.3333 29.9833H26.2333V30.0833V31.3333ZM12.9 18V18.1H13H14.25H14.35V18C14.35 16.9846 14.7043 16.1247 15.4145 15.4145C16.1247 14.7043 16.9846 14.35 18 14.35H18.1V14.25V13V12.9H18C16.5849 12.9 15.3788 13.3964 14.3876 14.3876C13.3964 15.3788 12.9 16.5849 12.9 18ZM26.6771 14.8758C26.6534 14.8323 26.6258 14.7862 26.5945 14.7376C26.5293 14.6361 26.4536 14.5353 26.3676 14.4349L26.3678 14.4347L26.3624 14.4293C25.9821 14.049 25.5155 13.8583 24.9688 13.8583C24.422 13.8583 23.9554 14.049 23.5751 14.4293L21.2419 16.7625L21.1022 16.5669C21.0325 16.4693 20.965 16.392 20.8992 16.3412C20.5198 15.9641 20.0549 15.775 19.5104 15.775C18.9637 15.775 18.4971 15.9657 18.1168 16.346L18.1166 16.3462L15.0335 19.4501C15.0334 19.4502 15.0334 19.4502 15.0333 19.4503C13.6676 20.816 12.9833 22.4594 12.9833 24.375C12.9833 26.2907 13.6677 27.9341 15.0335 29.2999C16.3992 30.6657 18.0427 31.35 19.9583 31.35C21.8739 31.35 23.5173 30.6657 24.8831 29.3C24.8831 29.3 24.8832 29.2999 24.8832 29.2999L26.6771 14.8758ZM29.1585 22.971L29.1583 22.9711L23.8668 28.2835C23.3203 28.8299 22.7102 29.2352 22.0363 29.5007C21.3602 29.7671 20.6677 29.9 19.9583 29.9C19.249 29.9 18.5565 29.7671 17.8804 29.5007C17.2065 29.2352 16.5964 28.8299 16.0499 28.2835C15.5034 27.737 15.0981 27.1269 14.8326 26.4529C14.5663 25.7768 14.4333 25.0844 14.4333 24.375C14.4333 23.6656 14.5663 22.9732 14.8326 22.2971C15.0981 21.6232 15.5033 21.0131 16.0497 20.4667C16.0498 20.4667 16.0498 20.4666 16.0499 20.4665L19.1538 17.3834L19.154 17.3832C19.2616 17.2757 19.3824 17.225 19.5208 17.225C19.6592 17.225 19.7801 17.2757 19.8876 17.3832C19.979 17.4746 20.0294 17.5922 20.0355 17.7436C20.0413 17.8888 19.9933 18.0111 19.8876 18.1168L17.3876 20.6168L17.3219 20.6826L17.3827 20.7529C17.8118 21.249 18.025 21.8162 18.025 22.4583C18.025 23.1005 17.8118 23.6677 17.3827 24.1638L17.3219 24.2341L17.3876 24.2999L18.2626 25.1749L18.337 25.2492L18.4075 25.1713C18.948 24.5739 19.2765 23.8891 19.3906 23.1188C19.5012 22.3721 19.4167 21.6387 19.138 20.9201L24.5915 15.4665C24.6982 15.3599 24.8222 15.3083 24.9688 15.3083C25.1153 15.3083 25.2393 15.3599 25.346 15.4665C25.4374 15.5579 25.4878 15.6755 25.4938 15.8269C25.4996 15.9721 25.4516 16.0945 25.346 16.2001L21.5126 20.0335L21.4419 20.1042L21.5126 20.1749L22.3876 21.0499L22.4582 21.1204L22.5289 21.05L27.5497 16.05L27.5499 16.0499C27.6574 15.9424 27.7783 15.8917 27.9167 15.8917C28.0551 15.8917 28.1759 15.9424 28.2835 16.0499C28.3749 16.1413 28.4253 16.2589 28.4313 16.4102C28.4371 16.5554 28.3891 16.6778 28.2835 16.7835L28.2833 16.7836L23.2833 21.8044L23.2129 21.8751L23.2835 21.9457L24.1585 22.8207L24.2292 22.8914L24.2999 22.8207L28.4249 18.6957C28.5324 18.5882 28.6533 18.5375 28.7917 18.5375C28.9301 18.5375 29.0509 18.5882 29.1585 18.6957C29.2651 18.8023 29.3167 18.9264 29.3167 19.0729C29.3167 19.2195 29.2651 19.3435 29.1585 19.4501L24.4501 24.1585L24.3786 24.23L24.451 24.3007L25.3468 25.1757L25.4175 25.2448L25.4874 25.1749L28.4249 22.2374C28.5324 22.1299 28.6533 22.0792 28.7917 22.0792C28.9301 22.0792 29.0509 22.1299 29.1585 22.2374L29.1583 22.2375L29.1627 22.2414C29.2655 22.3327 29.3167 22.4475 29.3167 22.5938C29.3167 22.7403 29.2651 22.8643 29.1585 22.971Z" fill="#F15640" stroke="#F15640" stroke-width="0.2"/>
</svg>
